<svg xmlns="http://www.w3.org/2000/svg" xmlns:xlink="http://www.w3.org/1999/xlink" version="1.1" width="181.15" height="168.57697" viewBox="0,0,181.15,168.57697"><g><g data-paper-data="{&quot;isPaintingLayer&quot;:true}" fill-rule="nonzero" stroke-linejoin="miter" stroke-miterlimit="10" stroke-dasharray="" stroke-dashoffset="0" style="mix-blend-mode: normal"><path d="M 101.6608 139.3287 L 101.6608 167.577 " fill="none" stroke="#000000" stroke-width="2" stroke-linecap="round"/><path d="M 63.5585 166.92 L 63.5585 138.6718 " fill="none" stroke="#000000" stroke-width="2" stroke-linecap="round"/><path d="M187.04916,239.89063v-82.11695h84.40163v82.11695z" fill="#65331e" stroke="none" stroke-width="0" stroke-linecap="butt" transform="matrix(1,0,0,1,-149.425,-96.67866)"/><path d="M304.95451,138.06561c0,0 5.3133,-11.56126 6.04419,-17.72163c0.79634,-6.71201 -1.44564,-21.03758 -1.44564,-21.03758h-0.65694c0,0 7.44065,13.6315 9.63209,20.43648c1.93791,6.01771 2.84969,18.32272 2.84969,18.32272z" data-paper-data="{&quot;index&quot;:null}" fill="#ffffff" stroke="none" stroke-width="0" stroke-linecap="butt" transform="matrix(1,0,0,1,-149.425,-96.67866)"/><path d="M265.66976,193.90513v-62.40888h64.90524v62.40888z" fill="#65331e" stroke="none" stroke-width="0" stroke-linecap="butt" transform="matrix(1,0,0,1,-149.425,-96.67866)"/><path d="M277.36321,135.43786c0,0 0.91178,-12.30501 2.84969,-18.32272c2.19144,-6.80498 9.63209,-20.43648 9.63209,-20.43648h-0.65694c0,0 -2.24197,14.32557 -1.44564,21.03758c0.73089,6.16036 6.04419,17.72163 6.04419,17.72163z" fill="#ffffff" stroke="none" stroke-width="0" stroke-linecap="butt" transform="matrix(1,0,0,1,-149.425,-96.67866)"/><path d="M 179.8361 75.5476 L 159.4711 75.5476 " fill="none" stroke="#ffffff" stroke-width="0.5" stroke-linecap="round"/><path d="M305.61145,161.71529v-14.45258h14.45258v14.45258z" fill="#ffffff" stroke="none" stroke-width="0" stroke-linecap="butt" transform="matrix(1,0,0,1,-149.425,-96.67866)"/><path d="M309.52569,157.14412v-7.93798h7.93798v7.93798z" fill="#000000" stroke="none" stroke-width="0" stroke-linecap="butt" transform="matrix(1,0,0,1,-149.425,-96.67866)"/><path d="M 49.1059 135.2704 L 49.1059 162.6427 " fill="none" stroke="#000000" stroke-width="2" stroke-linecap="round"/><path d="M 81.9527 162.5332 L 81.9527 134.6134 " fill="none" stroke="#000000" stroke-width="2" stroke-linecap="round"/><path d="M 5.5156 125.9195 C 4.4139 123.7161 6.6173 122.6144 6.6173 122.6144 L 6.6172 123.6777 C 6.7667 122.9309 6.9208 122.1848 7.0808 121.44 C 6.3978 121.6108 5.7148 121.7815 5.0318 121.9523 L 2.4635 122.0258 C 2.4635 122.0258 0 122.0258 0 119.5623 C 0 117.0988 2.4635 117.0988 2.4635 117.0988 L 3.8368 117.1723 C 4.5994 116.9817 5.362 116.791 6.1246 116.6004 C 5.416 115.3301 4.7178 114.0538 3.3493 112.7641 L 2.6757 112.5686 C 2.6757 112.5686 0.4722 111.4669 1.574 109.2635 C 2.6757 107.0601 4.8791 108.1618 4.8791 108.1618 L 6.8332 109.2802 C 8.9924 111.526 9.3729 113.8943 11.1751 115.8181 L 12.5297 115.3881 C 20.8561 111.2725 28.5054 99.5562 37.938 99.3615 C 37.938 99.3615 40.4015 99.3615 40.4015 101.825 C 40.4015 104.2886 37.938 104.2886 37.938 104.2886 C 31.0758 104.0692 21.1301 116.5523 14.7331 119.7949 L 12.9564 120.4074 C 12.7131 120.7263 12.4567 120.9529 12.1983 121.1088 C 11.9322 122.2837 11.6845 123.4628 11.4485 124.644 L 8.8207 127.0212 C 8.8207 127.0212 6.6173 128.1229 5.5156 125.9195 Z " fill="#65331e" stroke="none" stroke-width="0.5" stroke-linecap="butt"/></g></g></svg>