<?xml version="1.0" encoding="UTF-8" standalone="no"?>
<svg
   version="1.1"
   width="181.2"
   height="162.40805"
   viewBox="0 0 181.2 162.40805"
   id="svg13"
   sodipodi:docname="crouch1.svg"
   inkscape:version="1.4.2 (f4327f4, 2025-05-13)"
   inkscape:export-filename="crouch1.png"
   inkscape:export-xdpi="96"
   inkscape:export-ydpi="96"
   xmlns:inkscape="http://www.inkscape.org/namespaces/inkscape"
   xmlns:sodipodi="http://sodipodi.sourceforge.net/DTD/sodipodi-0.dtd"
   xmlns="http://www.w3.org/2000/svg"
   xmlns:svg="http://www.w3.org/2000/svg">
  <defs
     id="defs13" />
  <sodipodi:namedview
     id="namedview13"
     pagecolor="#ebf0ff"
     bordercolor="#000000"
     borderopacity="0.25"
     inkscape:showpageshadow="2"
     inkscape:pageopacity="0.0"
     inkscape:pagecheckerboard="true"
     inkscape:deskcolor="#d1d1d1"
     inkscape:zoom="6.7700254"
     inkscape:cx="68.906683"
     inkscape:cy="108.64066"
     inkscape:window-width="1920"
     inkscape:window-height="1009"
     inkscape:window-x="-8"
     inkscape:window-y="-8"
     inkscape:window-maximized="1"
     inkscape:current-layer="svg13" />
  <g
     data-paper-data="{&quot;isPaintingLayer&quot;:true}"
     fill-rule="nonzero"
     stroke-linejoin="miter"
     stroke-miterlimit="10"
     stroke-dasharray="none"
     stroke-dashoffset="0"
     style="mix-blend-mode:normal"
     id="g12"
     transform="matrix(0.95732117,0,0,0.95732117,0,4.7575197)">
    <path
       d="m 61.575486,134.1773 v 26.04078"
       fill="none"
       stroke="#000000"
       stroke-width="1.95075"
       stroke-linecap="round"
       id="path10"
       style="stroke-width:3.13273;stroke-linecap:round;stroke-dasharray:none" />
    <path
       d="M 115.16353,159.90101 V 128.67006"
       fill="none"
       stroke="#000000"
       stroke-width="1.95388"
       stroke-linecap="round"
       id="path11"
       style="stroke-width:3.39149;stroke-linecap:round;stroke-dasharray:none" />
    <path
       d="M 33.215495,154.86612 V 92.118835 L 144.7271,56.333825 134.55424,127.29662 Z"
       fill="#65331e"
       stroke="none"
       stroke-width="0"
       stroke-linecap="butt"
       id="path3"
       sodipodi:nodetypes="ccccc" />
    <path
       d="m 104.10926,120.60278 v 41.89596"
       fill="none"
       stroke="#000000"
       stroke-width="1.93756"
       stroke-linecap="round"
       id="path1"
       style="stroke-width:3.92485;stroke-linecap:round;stroke-dasharray:none" />
    <path
       d="m 163.18261,37.633981 c 0,0 6.30072,-11.054182 7.56574,-17.127408 1.3783,-6.617064 0.3934,-21.083522 0.3934,-21.083522 l -0.65444,-0.0572561 c 0,0 6.22428,14.2281231 7.81428,21.1982051 1.40606,6.163711 1.24192,18.501363 1.24192,18.501363 z"
       data-paper-data="{&quot;index&quot;:null}"
       fill="#ffffff"
       stroke="none"
       stroke-width="0"
       stroke-linecap="butt"
       id="path4" />
    <path
       d="m 119.18062,89.837123 5.43929,-62.171396 64.65826,5.656865 -5.43929,62.171395 z"
       fill="#65331e"
       stroke="none"
       stroke-width="0"
       stroke-linecap="butt"
       id="path5" />
    <path
       d="M 49.857216,162.9757 V 131.41968"
       fill="none"
       stroke="#000000"
       stroke-width="1.93756"
       stroke-linecap="round"
       id="path2"
       style="stroke-width:3.40627;stroke-linecap:round;stroke-dasharray:none" />
    <path
       d="m 135.92533,32.61149 c 0,0 1.98076,-12.178719 4.43578,-18.00463 2.77619,-6.5880885 11.37659,-19.5192211 11.37659,-19.5192211 l -0.65444,-0.057256 c 0,0 -3.48199,14.0756563 -3.27368,20.8315301 0.19119,6.200619 4.47664,18.180979 4.47664,18.180979 z"
       fill="#ffffff"
       stroke="none"
       stroke-width="0"
       stroke-linecap="butt"
       id="path6" />
    <path
       d="m 184.41941,73.783098 -20.2875,-1.774927"
       fill="none"
       stroke="#ffffff"
       stroke-width="0.5"
       stroke-linecap="round"
       id="path7" />
    <path
       d="m 161.77585,61.250922 1.25962,-14.397583 14.39759,1.259625 -1.25963,14.397584 z"
       fill="#ffffff"
       stroke="none"
       stroke-width="0"
       stroke-linecap="butt"
       id="path8" />
    <path
       d="m 166.0736,57.038296 0.69184,-7.907774 7.90777,0.691841 -0.69184,7.907773 z"
       fill="#000000"
       stroke="none"
       stroke-width="0"
       stroke-linecap="butt"
       id="path9" />
    <path
       d="m 5.5156,125.9195 c -1.1017,-2.2034 1.1017,-3.3051 1.1017,-3.3051 l -10e-5,1.0633 c 0.1495,-0.7468 0.3036,-1.4929 0.4636,-2.2377 -0.683,0.1708 -1.366,0.3415 -2.049,0.5123 l -2.5683,0.0735 c 0,0 -2.4635,0 -2.4635,-2.4635 0,-2.4635 2.4635,-2.4635 2.4635,-2.4635 l 1.3733,0.0735 c 0.7626,-0.1906 1.5252,-0.3813 2.2878,-0.5719 -0.7086,-1.2703 -1.4068,-2.5466 -2.7753,-3.8363 l -0.6736,-0.1955 c 0,0 -2.2035,-1.1017 -1.1017,-3.3051 1.1017,-2.2034 3.3051,-1.1017 3.3051,-1.1017 l 1.9541,1.1184 c 2.1592,2.2458 2.5397,4.6141 4.3419,6.5379 l 1.3546,-0.43 c 8.3264,-4.1156 15.9757,-15.8319 25.4083,-16.0266 0,0 2.4635,0 2.4635,2.4635 0,2.4636 -2.4635,2.4636 -2.4635,2.4636 -6.8622,-0.2194 -16.8079,12.2637 -23.2049,15.5063 l -1.7767,0.6125 c -0.2433,0.3189 -0.4997,0.5455 -0.7581,0.7014 -0.2661,1.1749 -0.5138,2.354 -0.7498,3.5352 l -2.6278,2.3772 c 0,0 -2.2034,1.1017 -3.3051,-1.1017 z"
       fill="#65331e"
       stroke="none"
       stroke-width="0.5"
       stroke-linecap="butt"
       id="path12" />
  </g>
</svg>
