<?xml version="1.0" encoding="UTF-8" standalone="no"?>
<svg
   version="1.1"
   width="183"
   height="163.51575"
   viewBox="0 0 183.00001 163.51575"
   id="svg13"
   sodipodi:docname="walk1.svg"
   inkscape:version="1.4.2 (f4327f4, 2025-05-13)"
   inkscape:export-filename="walk1.png"
   inkscape:export-xdpi="96"
   inkscape:export-ydpi="96"
   xmlns:inkscape="http://www.inkscape.org/namespaces/inkscape"
   xmlns:sodipodi="http://sodipodi.sourceforge.net/DTD/sodipodi-0.dtd"
   xmlns="http://www.w3.org/2000/svg"
   xmlns:svg="http://www.w3.org/2000/svg">
  <defs
     id="defs13" />
  <sodipodi:namedview
     id="namedview13"
     pagecolor="#ebf0ff"
     bordercolor="#000000"
     borderopacity="0.25"
     inkscape:showpageshadow="2"
     inkscape:pageopacity="0.0"
     inkscape:pagecheckerboard="true"
     inkscape:deskcolor="#d1d1d1"
     inkscape:zoom="2.8284271"
     inkscape:cx="62.402173"
     inkscape:cy="53.916892"
     inkscape:window-width="1920"
     inkscape:window-height="1009"
     inkscape:window-x="-8"
     inkscape:window-y="-8"
     inkscape:window-maximized="1"
     inkscape:current-layer="svg13" />
  <g
     id="g13"
     transform="matrix(0.95684679,0,0,0.95684679,0,5.9760901)">
    <g
       data-paper-data="{&quot;isPaintingLayer&quot;:true}"
       fill-rule="nonzero"
       stroke-linejoin="miter"
       stroke-miterlimit="10"
       stroke-dasharray="none"
       stroke-dashoffset="0"
       style="mix-blend-mode:normal"
       id="g12">
      <path
         d="m 61.575486,134.1773 v 26.04078"
         fill="none"
         stroke="#000000"
         stroke-width="1.95075"
         stroke-linecap="round"
         id="path10"
         style="stroke-width:3.13273;stroke-linecap:round;stroke-dasharray:none" />
      <path
         d="m 115.16353,160.17046 v -26.6471"
         fill="none"
         stroke="#000000"
         stroke-width="1.95388"
         stroke-linecap="round"
         id="path11"
         style="stroke-width:3.13273;stroke-linecap:round;stroke-dasharray:none" />
      <path
         d="M 33.215495,140.90544 V 61.646103 H 133.46356 v 79.259337 z"
         fill="#65331e"
         stroke="none"
         stroke-width="0"
         stroke-linecap="butt"
         id="path3" />
      <path
         d="M 104.10926,127.80967 V 162.8499"
         fill="none"
         stroke="#000000"
         stroke-width="1.93756"
         stroke-linecap="round"
         id="path1"
         style="stroke-width:3.58939;stroke-linecap:round;stroke-dasharray:none" />
      <path
         d="m 165.6327,35.141342 c 0,0 5.3133,-11.56126 6.04419,-17.72163 0.79634,-6.71201 -1.44564,-21.0375801 -1.44564,-21.0375801 h -0.65694 c 0,0 7.44065,13.6315001 9.63209,20.4364801 1.93791,6.01771 2.84969,18.32272 2.84969,18.32272 z"
         data-paper-data="{&quot;index&quot;:null}"
         fill="#ffffff"
         stroke="none"
         stroke-width="0"
         stroke-linecap="butt"
         id="path4" />
      <path
         d="m 126.34795,90.980862 v -62.40888 h 64.90524 v 62.40888 z"
         fill="#65331e"
         stroke="none"
         stroke-width="0"
         stroke-linecap="butt"
         id="path5" />
      <path
         d="M 49.857216,162.79725 V 127.75714"
         fill="none"
         stroke="#000000"
         stroke-width="1.93756"
         stroke-linecap="round"
         id="path2"
         style="stroke-width:3.58939;stroke-linecap:round;stroke-dasharray:none" />
      <path
         d="m 138.0414,32.513592 c 0,0 0.91178,-12.30501 2.84969,-18.32272 2.19144,-6.8049801 9.63209,-20.4364801 9.63209,-20.4364801 h -0.65694 c 0,0 -2.24197,14.32557 -1.44564,21.0375801 0.73089,6.16036 6.04419,17.72163 6.04419,17.72163 z"
         fill="#ffffff"
         stroke="none"
         stroke-width="0"
         stroke-linecap="butt"
         id="path6" />
      <path
         d="m 189.93929,69.301992 h -20.365"
         fill="none"
         stroke="#ffffff"
         stroke-width="0.5"
         stroke-linecap="round"
         id="path7" />
      <path
         d="m 166.28964,58.791022 v -14.45258 h 14.45258 v 14.45258 z"
         fill="#ffffff"
         stroke="none"
         stroke-width="0"
         stroke-linecap="butt"
         id="path8" />
      <path
         d="m 170.20388,54.219852 v -7.93798 h 7.93798 v 7.93798 z"
         fill="#000000"
         stroke="none"
         stroke-width="0"
         stroke-linecap="butt"
         id="path9" />
      <path
         d="m 5.5156,125.9195 c -1.1017,-2.2034 1.1017,-3.3051 1.1017,-3.3051 l -10e-5,1.0633 c 0.1495,-0.7468 0.3036,-1.4929 0.4636,-2.2377 -0.683,0.1708 -1.366,0.3415 -2.049,0.5123 l -2.5683,0.0735 c 0,0 -2.4635,0 -2.4635,-2.4635 0,-2.4635 2.4635,-2.4635 2.4635,-2.4635 l 1.3733,0.0735 c 0.7626,-0.1906 1.5252,-0.3813 2.2878,-0.5719 -0.7086,-1.2703 -1.4068,-2.5466 -2.7753,-3.8363 l -0.6736,-0.1955 c 0,0 -2.2035,-1.1017 -1.1017,-3.3051 1.1017,-2.2034 3.3051,-1.1017 3.3051,-1.1017 l 1.9541,1.1184 c 2.1592,2.2458 2.5397,4.6141 4.3419,6.5379 l 1.3546,-0.43 c 8.3264,-4.1156 15.9757,-15.8319 25.4083,-16.0266 0,0 2.4635,0 2.4635,2.4635 0,2.4636 -2.4635,2.4636 -2.4635,2.4636 -6.8622,-0.2194 -16.8079,12.2637 -23.2049,15.5063 l -1.7767,0.6125 c -0.2433,0.3189 -0.4997,0.5455 -0.7581,0.7014 -0.2661,1.1749 -0.5138,2.354 -0.7498,3.5352 l -2.6278,2.3772 c 0,0 -2.2034,1.1017 -3.3051,-1.1017 z"
         fill="#65331e"
         stroke="none"
         stroke-width="0.5"
         stroke-linecap="butt"
         id="path12" />
    </g>
  </g>
</svg>
